<mxfile host="app.diagrams.net" agent="Mozilla/5.0 (Macintosh; Intel Mac OS X 10_15_7) AppleWebKit/537.36 (KHTML, like Gecko) Chrome/128.0.0.0 Safari/537.36" version="24.7.16">
  <diagram name="Page-1" id="Vk1K6Nm6DYDJwGvuydqb">
    <mxGraphModel dx="1674" dy="819" grid="1" gridSize="10" guides="1" tooltips="1" connect="1" arrows="1" fold="1" page="1" pageScale="1" pageWidth="850" pageHeight="1100" math="0" shadow="0">
      <root>
        <mxCell id="0" />
        <mxCell id="1" parent="0" />
        <mxCell id="dVtNXSWhw6GrPqmoFsO1-43" style="edgeStyle=orthogonalEdgeStyle;rounded=0;orthogonalLoop=1;jettySize=auto;html=1;" edge="1" parent="1" source="dVtNXSWhw6GrPqmoFsO1-2" target="dVtNXSWhw6GrPqmoFsO1-22">
          <mxGeometry relative="1" as="geometry" />
        </mxCell>
        <mxCell id="dVtNXSWhw6GrPqmoFsO1-2" value="" style="swimlane;startSize=0;" vertex="1" parent="1">
          <mxGeometry x="240" y="280" width="200" height="200" as="geometry" />
        </mxCell>
        <mxCell id="dVtNXSWhw6GrPqmoFsO1-1" value="React JS Frontend" style="shape=image;html=1;verticalAlign=top;verticalLabelPosition=bottom;labelBackgroundColor=#ffffff;imageAspect=0;aspect=fixed;image=https://cdn1.iconfinder.com/data/icons/unicons-line-vol-5/24/react-128.png" vertex="1" parent="dVtNXSWhw6GrPqmoFsO1-2">
          <mxGeometry x="50" y="40" width="100" height="100" as="geometry" />
        </mxCell>
        <mxCell id="dVtNXSWhw6GrPqmoFsO1-4" style="edgeStyle=orthogonalEdgeStyle;rounded=0;orthogonalLoop=1;jettySize=auto;html=1;entryX=0;entryY=0.5;entryDx=0;entryDy=0;" edge="1" parent="1" source="dVtNXSWhw6GrPqmoFsO1-3" target="dVtNXSWhw6GrPqmoFsO1-2">
          <mxGeometry relative="1" as="geometry" />
        </mxCell>
        <mxCell id="dVtNXSWhw6GrPqmoFsO1-3" value="User&lt;div&gt;&lt;br&gt;&lt;/div&gt;" style="shape=umlActor;verticalLabelPosition=bottom;verticalAlign=top;html=1;outlineConnect=0;" vertex="1" parent="1">
          <mxGeometry x="100" y="350" width="30" height="60" as="geometry" />
        </mxCell>
        <mxCell id="dVtNXSWhw6GrPqmoFsO1-29" style="edgeStyle=orthogonalEdgeStyle;rounded=0;orthogonalLoop=1;jettySize=auto;html=1;" edge="1" parent="1" source="dVtNXSWhw6GrPqmoFsO1-6" target="dVtNXSWhw6GrPqmoFsO1-1">
          <mxGeometry relative="1" as="geometry">
            <Array as="points">
              <mxPoint x="520" y="370" />
              <mxPoint x="520" y="370" />
            </Array>
          </mxGeometry>
        </mxCell>
        <mxCell id="dVtNXSWhw6GrPqmoFsO1-37" style="edgeStyle=orthogonalEdgeStyle;rounded=0;orthogonalLoop=1;jettySize=auto;html=1;" edge="1" parent="1" source="dVtNXSWhw6GrPqmoFsO1-6" target="dVtNXSWhw6GrPqmoFsO1-34">
          <mxGeometry relative="1" as="geometry" />
        </mxCell>
        <mxCell id="dVtNXSWhw6GrPqmoFsO1-6" value="" style="swimlane;startSize=0;" vertex="1" parent="1">
          <mxGeometry x="560" y="280" width="200" height="200" as="geometry" />
        </mxCell>
        <mxCell id="dVtNXSWhw6GrPqmoFsO1-5" value="PyFlask API" style="shape=image;html=1;verticalAlign=top;verticalLabelPosition=bottom;labelBackgroundColor=#ffffff;imageAspect=0;aspect=fixed;image=https://cdn0.iconfinder.com/data/icons/long-shadow-web-icons/512/python-128.png" vertex="1" parent="dVtNXSWhw6GrPqmoFsO1-6">
          <mxGeometry x="70" y="40" width="78" height="78" as="geometry" />
        </mxCell>
        <mxCell id="dVtNXSWhw6GrPqmoFsO1-7" value="3000:80" style="image;sketch=0;aspect=fixed;html=1;points=[];align=center;fontSize=12;image=img/lib/mscae/Docker.svg;" vertex="1" parent="1">
          <mxGeometry x="380" y="210" width="60" height="49.2" as="geometry" />
        </mxCell>
        <mxCell id="dVtNXSWhw6GrPqmoFsO1-9" value="" style="dashed=0;outlineConnect=0;html=1;align=center;labelPosition=center;verticalLabelPosition=bottom;verticalAlign=top;shape=mxgraph.weblogos.google" vertex="1" parent="1">
          <mxGeometry x="627.4" y="100" width="65.2" height="69.4" as="geometry" />
        </mxCell>
        <mxCell id="dVtNXSWhw6GrPqmoFsO1-11" value="Oauth-Lib" style="text;html=1;align=center;verticalAlign=middle;resizable=0;points=[];autosize=1;strokeColor=none;fillColor=none;" vertex="1" parent="1">
          <mxGeometry x="620" y="169.4" width="80" height="30" as="geometry" />
        </mxCell>
        <mxCell id="dVtNXSWhw6GrPqmoFsO1-12" style="edgeStyle=orthogonalEdgeStyle;rounded=0;orthogonalLoop=1;jettySize=auto;html=1;entryX=0.613;entryY=0.953;entryDx=0;entryDy=0;entryPerimeter=0;" edge="1" parent="1" source="dVtNXSWhw6GrPqmoFsO1-5" target="dVtNXSWhw6GrPqmoFsO1-11">
          <mxGeometry relative="1" as="geometry" />
        </mxCell>
        <mxCell id="dVtNXSWhw6GrPqmoFsO1-13" style="edgeStyle=orthogonalEdgeStyle;rounded=0;orthogonalLoop=1;jettySize=auto;html=1;entryX=0.385;entryY=0.026;entryDx=0;entryDy=0;entryPerimeter=0;" edge="1" parent="1" source="dVtNXSWhw6GrPqmoFsO1-11" target="dVtNXSWhw6GrPqmoFsO1-5">
          <mxGeometry relative="1" as="geometry" />
        </mxCell>
        <mxCell id="dVtNXSWhw6GrPqmoFsO1-20" style="edgeStyle=orthogonalEdgeStyle;rounded=0;orthogonalLoop=1;jettySize=auto;html=1;entryX=1;entryY=0.5;entryDx=0;entryDy=0;" edge="1" parent="1" source="dVtNXSWhw6GrPqmoFsO1-15" target="dVtNXSWhw6GrPqmoFsO1-5">
          <mxGeometry relative="1" as="geometry" />
        </mxCell>
        <mxCell id="dVtNXSWhw6GrPqmoFsO1-15" value="OpenAI API&lt;div&gt;&lt;br&gt;&lt;/div&gt;" style="image;aspect=fixed;html=1;points=[];align=center;fontSize=12;image=img/lib/azure2/ai_machine_learning/Azure_OpenAI.svg;" vertex="1" parent="1">
          <mxGeometry x="870" y="319" width="80" height="80" as="geometry" />
        </mxCell>
        <mxCell id="dVtNXSWhw6GrPqmoFsO1-19" style="edgeStyle=orthogonalEdgeStyle;rounded=0;orthogonalLoop=1;jettySize=auto;html=1;" edge="1" parent="1" source="dVtNXSWhw6GrPqmoFsO1-5" target="dVtNXSWhw6GrPqmoFsO1-15">
          <mxGeometry relative="1" as="geometry" />
        </mxCell>
        <mxCell id="dVtNXSWhw6GrPqmoFsO1-42" style="edgeStyle=orthogonalEdgeStyle;rounded=0;orthogonalLoop=1;jettySize=auto;html=1;entryX=0.5;entryY=1;entryDx=0;entryDy=0;" edge="1" parent="1" source="dVtNXSWhw6GrPqmoFsO1-22" target="dVtNXSWhw6GrPqmoFsO1-2">
          <mxGeometry relative="1" as="geometry" />
        </mxCell>
        <mxCell id="dVtNXSWhw6GrPqmoFsO1-22" value="React JS Dependencies" style="shape=image;html=1;verticalAlign=top;verticalLabelPosition=bottom;labelBackgroundColor=#ffffff;imageAspect=0;aspect=fixed;image=https://cdn1.iconfinder.com/data/icons/ionicons-fill-vol-2/512/logo-npm-128.png" vertex="1" parent="1">
          <mxGeometry x="305" y="590" width="70" height="70" as="geometry" />
        </mxCell>
        <mxCell id="dVtNXSWhw6GrPqmoFsO1-28" style="edgeStyle=orthogonalEdgeStyle;rounded=0;orthogonalLoop=1;jettySize=auto;html=1;entryX=0.003;entryY=0.45;entryDx=0;entryDy=0;entryPerimeter=0;" edge="1" parent="1" source="dVtNXSWhw6GrPqmoFsO1-1" target="dVtNXSWhw6GrPqmoFsO1-6">
          <mxGeometry relative="1" as="geometry" />
        </mxCell>
        <mxCell id="dVtNXSWhw6GrPqmoFsO1-32" value="8000:8000" style="image;sketch=0;aspect=fixed;html=1;points=[];align=center;fontSize=12;image=img/lib/mscae/Docker.svg;" vertex="1" parent="1">
          <mxGeometry x="700" y="210" width="60" height="49.2" as="geometry" />
        </mxCell>
        <mxCell id="dVtNXSWhw6GrPqmoFsO1-33" value="HTTPS: 443&lt;div&gt;REST: GET, POST&lt;/div&gt;" style="text;html=1;align=center;verticalAlign=middle;resizable=0;points=[];autosize=1;strokeColor=none;fillColor=none;" vertex="1" parent="1">
          <mxGeometry x="440" y="319" width="120" height="40" as="geometry" />
        </mxCell>
        <mxCell id="dVtNXSWhw6GrPqmoFsO1-38" style="edgeStyle=orthogonalEdgeStyle;rounded=0;orthogonalLoop=1;jettySize=auto;html=1;entryX=0.5;entryY=1;entryDx=0;entryDy=0;" edge="1" parent="1" source="dVtNXSWhw6GrPqmoFsO1-34" target="dVtNXSWhw6GrPqmoFsO1-6">
          <mxGeometry relative="1" as="geometry" />
        </mxCell>
        <mxCell id="dVtNXSWhw6GrPqmoFsO1-34" value="" style="swimlane;startSize=0;" vertex="1" parent="1">
          <mxGeometry x="560" y="600" width="200" height="200" as="geometry" />
        </mxCell>
        <mxCell id="dVtNXSWhw6GrPqmoFsO1-36" value="MongoDB Database" style="dashed=0;outlineConnect=0;html=1;align=center;labelPosition=center;verticalLabelPosition=bottom;verticalAlign=top;shape=mxgraph.webicons.mongodb;gradientColor=#DFDEDE" vertex="1" parent="dVtNXSWhw6GrPqmoFsO1-34">
          <mxGeometry x="60" y="40" width="79.8" height="86.2" as="geometry" />
        </mxCell>
        <mxCell id="dVtNXSWhw6GrPqmoFsO1-39" value="27017:27017" style="image;sketch=0;aspect=fixed;html=1;points=[];align=center;fontSize=12;image=img/lib/mscae/Docker.svg;" vertex="1" parent="1">
          <mxGeometry x="700" y="525" width="60" height="49.2" as="geometry" />
        </mxCell>
      </root>
    </mxGraphModel>
  </diagram>
</mxfile>
